<svg id="Layer_1" data-name="Layer 1" xmlns="http://www.w3.org/2000/svg" viewBox="0 0 167.4895 84.0889"><defs><style>.cls-1{fill:#acfcfc;}.cls-11,.cls-18,.cls-2{fill:#fff;}.cls-3{fill:#79bd4e;}.cls-4{fill:#231815;}.cls-5{fill:#22a94b;}.cls-6{fill:#c32126;}.cls-7{fill:#17371e;}.cls-8{fill:#a0c83a;}.cls-9{fill:#1a9b49;}.cls-10{fill:#888ba5;}.cls-11{opacity:0.6;}.cls-12{fill:#a7aece;}.cls-13{fill:#676c89;}.cls-14{fill:#c4d36b;}.cls-15{fill:#eff;}.cls-15,.cls-18{opacity:0.4;}.cls-16{fill:#83ddca;}.cls-17{fill:#7d819a;}</style></defs><title>spaceship</title><path class="cls-1" d="M116.81,75.7619c8.0793-16.0276-8.8947-29.949-21.7839-31.9612C86.6009,42.5422,72.7018,47.2785,69.2347,58.32c-2.1683,6.8994-.3193,12.0816,2.045,17.72a127.0734,127.0734,0,0,1-20.5333-3.271c-1.2152-5.1962-.8491-11.47.8849-17.7253,2.6915-9.73,8.7125-19.4213,17.3625-24.9312,26.3467-16.8106,60.8148-3.5348,69.1435,23.4235a43.6163,43.6163,0,0,1,1.5514,18.0925C134.0259,73.4782,125.9564,74.881,116.81,75.7619Z" transform="translate(-13.4992 -21.4777)"/><path class="cls-2" d="M110.8488,51.3737c1.06-1.15,2.7256-3.349,2.4621-5.5715a4.3044,4.3044,0,0,0-2.5041-3.3109,5.4952,5.4952,0,0,0-1.8689-.6312c-2.3366-.3033-4.2309,1.346-5.2347,4.4773a25.4748,25.4748,0,0,0-7.457-2.1427,25.87,25.87,0,0,0-5.3231-.1435A6.6083,6.6083,0,0,0,89.97,39.75a4.9346,4.9346,0,0,0-7.6675.405c-1.1457,1.9526-.4727,4.6779.0423,6.1485a20.37,20.37,0,0,0-11.8414,15.56C69.0193,73.26,78.1548,83.8747,90.8689,85.5288c12.7114,1.654,24.2614-6.27,25.7425-17.6669A20.0392,20.0392,0,0,0,110.8488,51.3737Z" transform="translate(-13.4992 -21.4777)"/><path class="cls-3" d="M83.873,46.7785s-3.2074-6.9879,2.1464-7.408c5.3566-.4221,3.285,6.926,3.285,6.926Z" transform="translate(-13.4992 -21.4777)"/><path class="cls-4" d="M83.7715,46.9486l-.0473-.1055c-.074-.1568-1.7819-3.9326-.4875-6.1418a3.2915,3.2915,0,0,1,2.772-1.4962,3.2043,3.2043,0,0,1,3.1629,1.2975c1.3406,2.0371.333,5.6827.29,5.8386l-.0314.1074-5.6591.5Zm3.2249-7.4013a5.0083,5.0083,0,0,0-.962-.0162,2.9815,2.9815,0,0,0-2.5182,1.3366c-1.0934,1.8631.1923,5.1161.4582,5.7368l5.2022-.462c.1544-.6188.86-3.7377-.2759-5.4611a2.5586,2.5586,0,0,0-1.9043-1.1341Z" transform="translate(-13.4992 -21.4777)"/><path class="cls-4" d="M85.5809,46.51s-1.1811-3.7863.8777-4.0781C88.5228,42.14,87.77,46.307,87.77,46.307Z" transform="translate(-13.4992 -21.4777)"/><path class="cls-3" d="M109.2207,51.24s5.7378-5.1123.9989-7.6456c-4.7371-2.5353-5.7883,5.0258-5.7883,5.0258Z" transform="translate(-13.4992 -21.4777)"/><path class="cls-4" d="M109.2414,51.4393l-4.9833-2.7311.0145-.1112c.0344-.251.8907-6.1343,4.5237-5.6608a4.3742,4.3742,0,0,1,1.4974.5152,3.2676,3.2676,0,0,1,1.9423,2.4772c.3013,2.541-2.78,5.3149-2.9079,5.4337l-.0867.077Zm-4.629-2.9041,4.5819,2.5067c.4931-.4638,2.9737-2.9221,2.7175-5.0733a2.9718,2.9718,0,0,0-1.77-2.2311,3.9977,3.9977,0,0,0-1.386-.4762c-3.0607-.4-4.0089,4.47-4.1432,5.2739Z" transform="translate(-13.4992 -21.4777)"/><path class="cls-4" d="M107.76,50.3119s2.6015-2.9992.8313-4.09c-1.77-1.0932-2.7525,3.0239-2.7525,3.0239Z" transform="translate(-13.4992 -21.4777)"/><path class="cls-3" d="M115.3794,67.7031c-1.3981,10.7294-12.2986,18.1574-24.3508,16.59-12.0512-1.57-20.6894-11.5374-19.2925-22.27,1.3958-10.7342,12.2985-18.1593,24.35-16.5909S116.7754,56.9708,115.3794,67.7031Z" transform="translate(-13.4992 -21.4777)"/><path class="cls-4" d="M91.0067,84.4536c-12.1192-1.576-20.8369-11.65-19.4312-22.45C72.979,51.1969,83.9872,43.6938,96.1074,45.2709S116.9465,56.9214,115.54,67.724c-1.4057,10.8007-12.412,18.3086-24.5331,16.73Zm5.0584-38.86c-11.9428-1.5542-22.7868,5.8253-24.1666,16.4492-1.3841,10.6267,7.21,20.5339,19.1527,22.0891s22.7837-5.8234,24.1657-16.4521c1.381-10.6238-7.21-20.5339-19.1518-22.0862Z" transform="translate(-13.4992 -21.4777)"/><path class="cls-5" d="M115.2049,65.4663a4.7063,4.7063,0,1,1-4.0495-5.3462A4.7448,4.7448,0,0,1,115.2049,65.4663Z" transform="translate(-13.4992 -21.4777)"/><path class="cls-5" d="M81.13,63.5461a4.7041,4.7041,0,1,1-4.0477-5.3433A4.7412,4.7412,0,0,1,81.13,63.5461Z" transform="translate(-13.4992 -21.4777)"/><path class="cls-2" d="M81.4339,62.5679a4.6718,4.6718,0,1,1-4.0457-5.1046A4.6082,4.6082,0,0,1,81.4339,62.5679Z" transform="translate(-13.4992 -21.4777)"/><path class="cls-4" d="M76.1952,66.627a4.7032,4.7032,0,1,1,5.3972-4.0381,4.7713,4.7713,0,0,1-5.3972,4.0381Zm1.1716-9A4.3771,4.3771,0,1,0,81.27,62.5442a4.45,4.45,0,0,0-3.9036-4.9175Z" transform="translate(-13.4992 -21.4777)"/><path class="cls-4" d="M76.5431,62.07a1.3478,1.3478,0,1,1-1.1645-1.5124A1.3478,1.3478,0,0,1,76.5431,62.07Z" transform="translate(-13.4992 -21.4777)"/><path class="cls-2" d="M115.2727,64.2125a4.5781,4.5781,0,1,1-3.9453-5.1389A4.579,4.579,0,0,1,115.2727,64.2125Z" transform="translate(-13.4992 -21.4777)"/><path class="cls-4" d="M110.1219,68.33a4.7484,4.7484,0,1,1,5.3148-4.097,4.751,4.751,0,0,1-5.3148,4.097Zm1.1844-9.0943a4.4221,4.4221,0,1,0,3.8062,4.9554,4.4214,4.4214,0,0,0-3.8062-4.9554Z" transform="translate(-13.4992 -21.4777)"/><path class="cls-4" d="M113.1127,64.1051a1.2458,1.2458,0,1,1-1.0739-1.3974A1.2436,1.2436,0,0,1,113.1127,64.1051Z" transform="translate(-13.4992 -21.4777)"/><path class="cls-6" d="M92.01,78.4468c-.856-.11-1.4618-.6721-1.3831-1.28.0748-.5627.727-.9486,1.519-.8983,1,.1236,1.6077.6882,1.5279,1.2957-.073.5608-.7258.9478-1.5179.8973Z" transform="translate(-13.4992 -21.4777)"/><path class="cls-4" d="M92.1289,76.5247c.0423.0038.0855.0076.1288.0123.7006.0913,1.2177.5352,1.1586.9925-.0561.4277-.5987.7167-1.2441.6758-.0445-.0038-.0878-.0085-.13-.0161-.6972-.0884-1.2182-.5333-1.1592-.99.0563-.4278.6017-.7139,1.2462-.6749m.0323-.5162a1.5641,1.5641,0,0,0-1.7928,1.1236c-.0974.7519.6077,1.44,1.6058,1.5733a1.6591,1.6591,0,0,0,.1654.017,1.5479,1.5479,0,0,0,1.7912-1.1245c.0972-.7529-.6079-1.444-1.6058-1.5751-.0563-.0067-.1106-.0105-.1638-.0143Z" transform="translate(-13.4992 -21.4777)"/><path class="cls-7" d="M74.5987,56.1115a.1328.1328,0,0,1-.0721-.0266.1641.1641,0,0,1-.04-.2263,3.5631,3.5631,0,0,1,3.16-1.4611A2.31,2.31,0,0,1,79.7338,56.48a.162.162,0,1,1-.3235.019,1.96,1.96,0,0,0-1.8054-1.7785,3.2864,3.2864,0,0,0-2.8527,1.326.1606.1606,0,0,1-.1535.0647Z" transform="translate(-13.4992 -21.4777)"/><path class="cls-7" d="M108.2309,58.8055c-.01-.0029-.0212-.0038-.03-.0057a.1649.1649,0,0,1-.1036-.2063A3.5571,3.5571,0,0,1,110.66,56.24a2.313,2.313,0,0,1,2.6244,1.34.1635.1635,0,1,1-.3042.12,1.9573,1.9573,0,0,0-2.2639-1.1407,3.293,3.293,0,0,0-2.3109,2.1351.1637.1637,0,0,1-.1742.1112Z" transform="translate(-13.4992 -21.4777)"/><path class="cls-8" d="M105.1227,66.8c-.68,5.2168-6.4273,8.7692-12.8391,7.9365-6.412-.8347-11.0605-5.7426-10.38-10.9595.6787-5.2206,6.4287-8.774,12.84-7.9422C101.156,56.6714,105.8026,61.5774,105.1227,66.8Z" transform="translate(-13.4992 -21.4777)"/><path class="cls-9" d="M92.2637,74.8973c-6.4924-.8471-11.211-5.8424-10.5215-11.14.69-5.3015,6.5313-8.9271,13.0227-8.083,6.49.8461,11.21,5.8471,10.52,11.1448-.69,5.3-6.53,8.9224-13.0208,8.0783Zm2.4575-18.9008c-6.3129-.82-11.9909,2.6778-12.6568,7.8016-.6668,5.1189,3.9284,9.9546,10.24,10.7759,6.3143.8223,11.993-2.6778,12.6582-7.7977s-3.927-9.9576-10.2413-10.78Z" transform="translate(-13.4992 -21.4777)"/><path class="cls-7" d="M92.3782,64.4673c.3947,1.7643-.3686,3.4373-1.6982,3.7349-1.334.2994-2.7328-.8889-3.1247-2.6532-.3952-1.7633.3662-3.44,1.699-3.7368C90.587,61.5128,91.9839,62.702,92.3782,64.4673Z" transform="translate(-13.4992 -21.4777)"/><path class="cls-7" d="M99.2874,66.5814c-.5822,1.3109-1.7752,2.0533-2.6657,1.656-.8926-.3984-1.14-1.7767-.5585-3.0914.5851-1.3118,1.7781-2.0562,2.6667-1.6578C99.6222,63.8855,99.87,65.27,99.2874,66.5814Z" transform="translate(-13.4992 -21.4777)"/><path class="cls-10" d="M180.7193,71.28a15.1927,15.1927,0,0,1-3.4627,5.1823c.01.02-.0047.0157-.0245.0253C154.3289,99.7775,46.884,97.3392,20.6173,83.7094l-.0143-.004a16.4026,16.4026,0,0,1-3.9874-2.7412C3.5438,68.102,34.766,58.3677,51.6313,55.0437c-1.734,6.2555-2.1,12.5291-.8849,17.7253A127.0734,127.0734,0,0,0,71.28,76.04a256.8883,256.8883,0,0,0,45.53-.2781c9.1465-.8809,17.216-2.2837,22.8788-4.1334a43.6163,43.6163,0,0,0-1.5514-18.0925C154.4735,55.638,184.1216,62.4527,180.7193,71.28Z" transform="translate(-13.4992 -21.4777)"/><path class="cls-11" d="M118.9955,40.2572c-.3854-4.1627-3.1926-6.8825-6.8054-8.486-3.271-1.4538-7.2042-2.9162-11.8376-1.5987-3.1647.9022-6.6715,3.452-3.4807,6.27,1.1454,1.01,3.3663.6666,4.769.74,3.2224.1654,6.2092.7474,8.8008,2.75,1.3957,1.079,3.2569,2.935,5.2723,3.3649A2.6413,2.6413,0,0,0,118.9955,40.2572Z" transform="translate(-13.4992 -21.4777)"/><path class="cls-11" d="M123.4841,44.593c-5.4508.3827-2.5766,10.7124,2.1111,10.4942C130.71,54.8521,127.003,44.3456,123.4841,44.593Z" transform="translate(-13.4992 -21.4777)"/><path class="cls-12" d="M33.2442,73.1751a2.4976,2.4976,0,0,0-2.2249-2.907c-1.5153-.21-3.9367,1.2286-3.0223,3.4823C29.235,76.7952,32.9486,76.2174,33.2442,73.1751Z" transform="translate(-13.4992 -21.4777)"/><path class="cls-13" d="M47.5918,76.4983a5.9321,5.9321,0,0,0-3.1326-1.0365A4.7872,4.7872,0,0,0,40.3271,77.67a5.49,5.49,0,0,0-.6918,2.6055c.1923,3.5092,4.5131,5.399,7.5344,4.4973,2.785-.8262,3.6074-4.4217,2.0649-6.7137A5.8231,5.8231,0,0,0,47.5918,76.4983Z" transform="translate(-13.4992 -21.4777)"/><path class="cls-12" d="M64.3434,84.8046a2.4954,2.4954,0,0,0-2.2246-2.9067c-1.516-.21-3.9373,1.2293-3.0238,3.4811C60.3326,88.4259,64.0468,87.8473,64.3434,84.8046Z" transform="translate(-13.4992 -21.4777)"/><path class="cls-12" d="M162.3273,70.733a2.4978,2.4978,0,0,1,2.0962-3.0033c1.501-.275,3.9838,1.0542,3.169,3.347C166.4893,74.1761,162.7579,73.7586,162.3273,70.733Z" transform="translate(-13.4992 -21.4777)"/><path class="cls-13" d="M148.9784,72.8407a5.946,5.946,0,0,1,3.08-1.1736,4.7989,4.7989,0,0,1,4.2279,2.0236,5.47,5.47,0,0,1,.8047,2.5729c-.04,3.516-4.2712,5.5924-7.3277,4.8271-2.82-.7066-3.8-4.2593-2.3605-6.6177A5.8242,5.8242,0,0,1,148.9784,72.8407Z" transform="translate(-13.4992 -21.4777)"/><path class="cls-12" d="M131.41,82.2283a2.505,2.505,0,0,1,2.0975-3.0062c1.5032-.2729,3.9829,1.0588,3.1716,3.35C135.5757,85.67,131.84,85.2531,131.41,82.2283Z" transform="translate(-13.4992 -21.4777)"/><path class="cls-13" d="M83.9389,80.2356a5.8832,5.8832,0,0,0-3.2872-.2426,4.7782,4.7782,0,0,0-3.4751,3.1413,5.4779,5.4779,0,0,0-.0389,2.6952c1.0363,3.3591,5.6885,4.1424,8.4,2.5381,2.5019-1.4826,2.4282-5.1672.3739-7.0183A5.7221,5.7221,0,0,0,83.9389,80.2356Z" transform="translate(-13.4992 -21.4777)"/><path class="cls-13" d="M118.8346,79.6481a5.9633,5.9633,0,0,0-3.2641.4885,4.7938,4.7938,0,0,0-2.6935,3.8346,5.4579,5.4579,0,0,0,.56,2.6367c1.7532,3.0466,6.4616,2.7835,8.7529.619,2.112-1.9981,1.2225-5.5769-1.1877-6.9263A5.7792,5.7792,0,0,0,118.8346,79.6481Z" transform="translate(-13.4992 -21.4777)"/><path class="cls-14" d="M95.9475,71.6051c.0965.0317.0317.6575-.6791,1.329a4.4783,4.4783,0,0,1-3.4536.8921A6.5244,6.5244,0,0,1,88.5329,72.58a4.688,4.688,0,0,1-.4568-.4285,4.103,4.103,0,0,1-.2708-.4027c-.0986-.2677-.1039-.4117-.0408-.4377.1459-.0492.4058.34,1.1532.6733a9.1591,9.1591,0,0,0,2.9988.8446,4.8652,4.8652,0,0,0,2.93-.4645C95.5,71.9786,95.8,71.5255,95.9475,71.6051Z" transform="translate(-13.4992 -21.4777)"/><path class="cls-15" d="M107.0691,62.5184c.9408-1.0134,3.1233-.2509,3.9769,1.1764.5026.8425.7807,3.0344-.6932,2.9648-1.0676-.0494-1.2239-1.57-1.8591-2.177-.4643-.4365-2.0514-.8471-1.5909-1.73A1.085,1.085,0,0,1,107.0691,62.5184Z" transform="translate(-13.4992 -21.4777)"/><path class="cls-15" d="M111.5476,67.4667c-1.7947-.0964-1.1048,2.7345.5372,1.6418A.9247.9247,0,0,0,111.5476,67.4667Z" transform="translate(-13.4992 -21.4777)"/><path class="cls-13" d="M177.2321,76.4879c-12.62,22.3654-67.4,37.4457-121.2442,24.0067C43.51,97.3878,27.7616,91.3131,20.6173,83.7094,46.884,97.3392,154.3289,99.7775,177.2321,76.4879Z" transform="translate(-13.4992 -21.4777)"/><path class="cls-15" d="M78.6145,60.9344c.8077-1.1212,3.0639-.6325,4.0887.677.6057.7706,1.1529,2.9152-.3183,3.0264-1.0676.0833-1.4116-1.4077-2.1156-1.9249-.5164-.381-2.1408-.5908-1.7923-1.5217A1.0948,1.0948,0,0,1,78.6145,60.9344Z" transform="translate(-13.4992 -21.4777)"/><path class="cls-15" d="M83.6683,65.2923c-1.79.1235-.7542,2.8471.7383,1.56A.9232.9232,0,0,0,83.6683,65.2923Z" transform="translate(-13.4992 -21.4777)"/><path class="cls-12" d="M97.0048,85.5171a2.4991,2.4991,0,0,1,2.0972-3.0024c1.5025-.2764,3.9852,1.0542,3.17,3.3456C101.17,88.9607,97.435,88.5436,97.0048,85.5171Z" transform="translate(-13.4992 -21.4777)"/><path class="cls-16" d="M139.6259,72.1579c-.0811-.01-.1118-.5522-.0969-1.5669.0154-.5057.0343-1.1311.0567-1.87-.017-.7375-.0365-1.5882-.0585-2.5459a43.348,43.348,0,0,0-3.3758-15.6428,41.7736,41.7736,0,0,0-5.6158-9.4744,43.801,43.801,0,0,0-9.174-8.66,46.3654,46.3654,0,0,0-12.46-6.2358,48.6341,48.6341,0,0,0-14.7666-2.3164A46.412,46.412,0,0,0,67.107,32.7807a39.0472,39.0472,0,0,0-8.5279,9.2353,49.0362,49.0362,0,0,0-5.0393,9.84c-.6351,1.5772-1.0632,3.1368-1.5077,4.6032q-.2616,1.1176-.5082,2.1708a19.1059,19.1059,0,0,0-.3957,2.0563l-.3048,1.9325q-.0826.9379-.159,1.8029c-.1459,1.1543-.0828,2.2113-.12,3.1655-.0435.9563.0938,1.7936.1116,2.531a15.329,15.329,0,0,0,.1949,1.8515c.1329,1.0009.166,1.5441.0872,1.5653s-.2668-.4809-.5548-1.47a11.2221,11.2221,0,0,1-.4254-1.8555,23.679,23.679,0,0,1-.3342-2.5811,29.3174,29.3174,0,0,1-.0865-3.26q.0307-.8953.0643-1.867c.0558-.6444.1414-1.3112.2167-2.0043a19.26,19.26,0,0,1,.3154-2.1381c.1411-.73.2709-1.4886.4367-2.2616.4-1.5283.79-3.1576,1.3944-4.8082a48.7426,48.7426,0,0,1,4.9739-10.3514A40.1763,40.1763,0,0,1,65.7653,31.06a46.1146,46.1146,0,0,1,12.901-6.9,48.65,48.65,0,0,1,15.457-2.6824,49.9864,49.9864,0,0,1,15.5021,2.48,47.5874,47.5874,0,0,1,13.0058,6.6654,44.704,44.704,0,0,1,9.4592,9.2354,42.0417,42.0417,0,0,1,5.6122,10.0433,40.4973,40.4973,0,0,1,2.7463,16.2734c-.0555.9748-.0865,1.84-.16,2.5853l-.2847,1.8759C139.8346,71.6467,139.7069,72.1684,139.6259,72.1579Z" transform="translate(-13.4992 -21.4777)"/><path class="cls-17" d="M148.0949,66.2668c.0408.0146.04.1189-.0069.318a3.514,3.514,0,0,1-.107.3679l-.2454.4643a7.9642,7.9642,0,0,1-2.4771,2.36c-2.4756,1.6507-6.4768,3.1208-11.4958,4.3464-10.06,2.4349-24.2671,3.9431-39.9461,4.0422-15.6774.0834-29.91-1.3017-39.9648-3.7471A47.3806,47.3806,0,0,1,42.313,70.289c-2.5689-1.4138-3.6537-2.6826-3.55-2.7848.1279-.1538,1.3786.8146,3.9783,1.9079a58.8158,58.8158,0,0,0,11.4891,3.2745c9.9513,1.96,24.0363,3.0556,39.5716,2.9725,15.5354-.0973,29.62-1.3168,39.5787-3.267a45.0074,45.0074,0,0,0,11.3811-3.4558,9.5813,9.5813,0,0,0,2.5684-1.8215l.3207-.355.2034-.2813C147.972,66.3273,148.0543,66.2522,148.0949,66.2668Z" transform="translate(-13.4992 -21.4777)"/><path class="cls-18" d="M118.9955,40.2572c-.3854-4.1627-3.1926-6.8825-6.8054-8.486-3.271-1.4538-7.2042-2.9162-11.8376-1.5987-3.1647.9022-6.6715,3.452-3.4807,6.27,1.1454,1.01,3.3663.6666,4.769.74,3.2224.1654,6.2092.7474,8.8008,2.75,1.3957,1.079,3.2569,2.935,5.2723,3.3649A2.6413,2.6413,0,0,0,118.9955,40.2572Z" transform="translate(-13.4992 -21.4777)"/><path class="cls-18" d="M123.4841,44.593c-5.4508.3827-2.5766,10.7124,2.1111,10.4942C130.71,54.8521,127.003,44.3456,123.4841,44.593Z" transform="translate(-13.4992 -21.4777)"/></svg>